<?xml version="1.0" standalone="no"?><!DOCTYPE svg PUBLIC "-//W3C//DTD SVG 1.1//EN"
  "http://www.w3.org/Graphics/SVG/1.1/DTD/svg11.dtd">
<svg t="1644769859262" class="icon" viewBox="0 0 1024 1024" version="1.1" xmlns="http://www.w3.org/2000/svg" p-id="1465"
     width="20" height="20">
  <defs>
    <style type="text/css"></style>
  </defs>
  <path
    d="M211.370667 214.485333c-26.069333 3.285333-52.138667 24.874667-60.672 49.706667-5.674667 15.445333-107.52 454.229333-107.946667 462.165333-0.981333 22.997333 12.288 39.850667 34.048 44.074667 8.106667 1.877333 266.709333 1.877333 275.242667 0 24.618667-4.693333 47.872-23.893333 56.362666-47.36 3.328-8.874667 108.501333-456.106667 108.501334-463.573333 1.408-21.077333-11.392-38.442667-31.744-44.544-4.736-0.938667-262.912-1.877333-273.792-0.426667z"
    fill="#E60012" p-id="1466"></path>
  <path
    d="M452.48 214.485333c-26.026667 3.285333-52.096 24.874667-60.629333 49.706667-5.205333 15.445333-107.52 454.229333-107.52 462.165333-0.981333 22.997333 12.288 39.850667 34.090666 44.074667 8.064 1.877333 266.666667 1.877333 275.2 0 24.661333-4.693333 47.872-23.893333 56.405334-47.36 3.285333-8.874667 108.458667-456.106667 108.458666-463.573333 1.450667-21.077333-11.349333-38.442667-31.744-44.544-5.205333-0.938667-263.381333-1.877333-274.261333-0.426667z"
    fill="#00508E" p-id="1467"></path>
  <path
    d="M704 214.485333c-26.026667 3.285333-52.053333 24.874667-60.586667 49.706667-5.248 15.445333-107.562667 454.229333-107.562666 462.165333-0.938667 22.997333 12.330667 39.850667 34.133333 44.074667 8.021333 1.877333 200.362667 1.877333 208.896 0 24.618667-4.693333 47.829333-23.893333 56.32-47.36 3.370667-8.874667 108.501333-456.106667 108.501333-463.573333 1.450667-21.077333-11.349333-38.442667-31.744-44.544-4.693333-1.408-220.714667-2.346667-231.637333-0.938667h23.68v0.469333z"
    fill="#00908C" p-id="1468"></path>
  <path
    d="M203.306667 356.992a30.72 30.72 0 0 1-1.408 6.101333c-10.922667 36.565333-21.802667 85.76-20.394667 91.861334 3.797333 18.304 30.805333 16.896 40.277333-2.346667 2.858667-5.12 23.210667-90.922667 23.210667-97.024 0-0.426667 32.213333 0 32.213333 0.469333 0 0 0 1.408-0.469333 2.816a1510.4 1510.4 0 0 0-11.392 44.544c-12.8 49.664-14.208 54.826667-20.821333 64.682667-21.76 31.872-94.72 30.933333-100.437334-1.408-1.408-7.04 14.208-88.106667 21.333334-110.165333 0-1.408 37.888-0.426667 37.888 0.469333z m484.138666 0c21.76 4.693333 28.416 22.016 18.474667 47.786667-9.941333 25.813333-31.274667 37.077333-68.693333 37.077333-11.392 0-10.410667-1.877333-17.493334 33.28-1.450667 6.528-2.858667 12.629333-2.858666 13.568-0.512 2.346667-34.133333 2.346667-33.664 0 28.416-120.448 30.805333-130.773333 30.805333-131.712l0.469333-1.408h34.133334c26.965333 0.469333 34.56 0.469333 38.826666 1.408z m-292.266666 46.421333c4.693333 0.938667 8.021333 4.693333 8.021333 7.978667 0 11.690667-24.149333 19.669333-33.152 10.752-8.533333-8.917333 9.472-22.485333 25.130667-18.773333z m-83.882667 8.874667c0 0.938667-0.426667 2.816-0.426667 4.266667l-0.512 1.834666 5.674667-2.816c15.189333-7.466667 29.866667-6.058667 34.56 3.285334 2.858667 5.632 2.389333 8.96-5.162667 43.605333-1.450667 6.101333-3.328 14.506667-3.84 18.773333-1.877333 9.386667-0.426667 8.874667-17.493333 8.874667-14.677333 0-14.677333 0-14.208-1.408 0-0.938667 1.877333-8.405333 3.797333-17.322667 7.552-33.28 8.064-37.973333 1.408-37.973333-3.797333 0-8.96 2.346667-9.472 3.754667a1420.16 1420.16 0 0 0-9.941333 47.786666l-0.938667 4.266667-14.72 0.896c-17.962667 0.469333-16.554667 1.877333-12.8-14.08 5.248-20.608 8.106667-35.114667 9.984-48.213333 2.346667-14.08 0.938667-12.714667 14.208-14.592 6.144-0.938667 12.330667-1.834667 14.208-2.304 4.736-1.408 5.674667-0.938667 5.674667 1.365333z m225.024-0.426667c0 0.896-0.469333 2.773333-0.469333 4.181334l-0.469334 2.346666 5.674667-2.816c29.354667-14.976 40.746667-2.816 32.213333 35.626667-1.877333 8.448-4.266667 20.650667-5.674666 26.282667a49.749333 49.749333 0 0 1-2.858667 11.690666c-1.877333 1.877333-29.866667 1.408-29.354667 0 0-0.938667 1.877333-8.405333 3.797334-16.853333 8.021333-34.218667 8.021333-38.442667 0.938666-38.442667-5.674667 0-8.533333 1.877333-9.472 6.101334-1.408 5.12-8.533333 38.912-9.472 44.970666l-0.938666 5.162667-14.72 0.469333c-17.962667 0.469333-16.554667 2.346667-12.288-14.976 4.693333-18.773333 8.064-36.096 10.410666-48.768 1.877333-12.202667 0.469333-10.794667 12.330667-12.672 5.205333-0.938667 11.818667-1.877333 14.208-2.304 4.693333-2.346667 6.144-1.877333 6.144 0z m287.573333-0.469333c1.877333 28.586667 2.346667 36.992 2.346667 37.461333 0 0.469333 4.266667-6.997333 8.96-16.384 9.514667-18.773333 7.637333-16.896 18.048-18.304 2.816-0.426667 8.533333-1.408 12.8-2.304 10.410667-1.877333 10.410667-2.816-1.450667 17.792-16.085333 27.648-38.357333 66.56-46.421333 80.64-24.149333 43.562667-24.149333 43.562667-44.501333 44.032l-12.373334 0.469334 0.981334-3.285334c0.469333-1.834667 1.92-5.589333 2.389333-8.405333l1.408-5.162667h3.797333c4.266667 0 5.205333-0.938667 8.96-7.509333 1.450667-2.346667 3.84-6.101333 4.778667-8.448 1.408-2.346667 6.144-9.813333 9.941333-17.322667l7.594667-13.141333-1.92-17.322667a1133.781333 1133.781333 0 0 0-6.613333-51.114666c-0.981333-6.570667-0.981333-6.570667 7.552-7.509334 3.84-0.426667 9.941333-1.877333 13.269333-2.346666 9.002667-2.773333 9.941333-2.773333 10.410667-1.834667z m-357.205333 0.426667c36.48 6.570667 23.68 69.376-16.085333 78.293333-27.008 6.101333-45.482667-4.224-45.482667-24.832 0.426667-36.096 27.477333-59.52 61.568-53.418667z m272.853333 1.877333a28.458667 28.458667 0 0 1 6.144 4.266667c2.389333 2.304 2.389333 2.304 2.389334 0.896 0.469333-1.877333 0-1.877333 18.944-4.693334 15.146667-2.304 14.677333-2.304 13.738666 1.877334a3313.322667 3313.322667 0 0 0-13.738666 60.501333c-3.328 16.853333-0.938667 14.976-19.413334 14.506667h-15.658666v-1.877334c0-1.877333-0.938667-2.816-1.877334-1.408-5.205333 8.448-30.805333 5.162667-37.888-5.12-17.493333-26.282667 19.882667-81.578667 47.36-68.949333z m-340.138666 13.653333s0 2.304-0.426667 4.181334c-3.84 15.018667-10.453333 45.482667-11.861333 51.072l-1.450667 7.04-15.616 0.469333c-18.474667 0.469333-17.493333 1.408-13.738667-9.813333 3.328-10.794667 6.613333-23.893333 8.533334-37.973334 1.877333-12.202667 0-10.325333 13.738666-12.202666 6.144-0.938667 12.8-1.877333 14.208-2.346667 3.797333-0.938667 6.144-0.938667 6.613334-0.426667z m82.901333 96.981334a19.285333 19.285333 0 0 1-2.346667 4.693333c-0.938667 2.346667-2.389333 4.224-2.389333 4.224 27.946667 0.426667 28.928 0.426667 28.416 1.877333l-5.205333 16.853334h-40.704l-2.389334 1.877333c-5.205333 4.693333-32.682667 10.794667-32.682666 7.04l5.205333-16.853333h3.797333c6.613333 0 8.064-1.408 13.738667-11.264l4.693333-8.917334c24.661333-0.426667 29.866667 0 29.866667 0.469334z m62.08 0a29.269333 29.269333 0 0 1-1.450667 5.632 20.992 20.992 0 0 0-1.408 5.12s2.389333-0.896 5.205334-3.242667c10.453333-7.04 19.456-8.448 45.952-8.448 10.453333 0 19.413333 0 19.925333 0.469333 0.426667 0.938667-15.189333 51.584-17.536 56.277334a23.808 23.808 0 0 1-11.861333 11.690666l-4.693334 1.877334-27.050666 0.469333-26.965334 0.469333-4.778666 15.957334c-9.472 30.464-9.472 28.117333 4.266666 26.709333 10.922667-0.938667 10.453333-1.877333 7.125334 9.386667l-2.858667 9.386666h-13.738667c-29.866667 0.426667-33.621333-1.450667-30.762666-13.653333 1.408-6.058667 35.498667-117.632 35.968-118.570667 0.512-0.426667 24.661333-0.426667 24.661333 0.469334z m124.586667 0c0 0.469333-0.469333 1.877333-0.938667 3.754666-1.450667 4.693333-1.450667 4.693333 4.693333 1.408 8.106667-4.224 27.050667-5.632 65.877334-5.632h12.330666v5.632c0 6.570667 0.426667 7.04 6.144 7.978667l4.266667 0.426667-2.389333 8.490666-2.346667 8.405334h-8.533333c-21.76 0.469333-25.088-1.877333-25.6-14.506667v-6.101333l-1.408 4.224-1.408 4.693333h-4.736c-2.389333 0-4.736 0-4.736 0.426667l-26.538667 87.210666c-0.469333 0.938667 0 1.408 2.858667 1.408 4.266667 0 4.266667 0 2.816 3.754667-1.408 4.224-1.408 4.224 3.328 4.224a13.056 13.056 0 0 0 7.594666-1.877333c3.285333-1.877333 3.285333-1.408 18.474667-22.485334l6.144-8.96h-12.8c-15.616 0-14.208 0.981333-11.349333-8.405333l2.346666-7.509333h31.274667c2.858667-9.813333 3.797333-12.629333 3.797333-13.098667 0-0.469333-6.656-0.469333-15.146666-0.469333h-15.189334l4.736-16.896h42.666667c23.210667 0 42.624 0 42.624 0.469333s-0.938667 4.266667-2.389333 8.448l-2.346667 7.978667-14.208 0.426666-14.208 0.512c-2.389333 6.997333-3.328 10.282667-3.84 11.221334l-0.426667 1.877333h13.738667c16.085333 0 15.146667-0.938667 11.818667 8.448l-2.346667 7.509333h-31.274667l-4.736 5.632h12.330667l1.877333 11.221334c1.877333 12.672 1.877333 12.672 8.064 12.672 4.693333 0 4.693333-0.938667 1.408 10.325333l-2.858666 9.386667h-8.96c-15.658667 0-18.517333-2.389333-21.333334-18.304l-1.408-10.325334-5.717333 7.509334c-15.616 21.077333-16.554667 21.546667-36.48 21.546666-12.8 0-12.8 0-10.88-3.754666 0.469333-1.834667 0.469333-1.834667-3.328-1.834667s-3.797333 0-4.693333 2.773333l-0.512 2.816h-26.538667l0.469333-1.408c1.450667-4.693333 3.84-4.181333-25.088-4.181333-25.088 0-26.538667 0-26.026666-1.408l2.346666-8.448c2.858667-8.448 2.346667-8.448 5.205334-8.448 2.389333 0 2.389333 0 3.328-3.285333l30.293333-100.266667 1.92-6.144h13.226667c8.533333 0 14.72 0.469333 14.72 0.938667z m-168.192 40.32l-5.205334 16.426666h-28.416a137.386667 137.386667 0 0 1-4.266666 13.098667c-0.469333 1.408 0.469333 1.408 14.208 1.408 8.064 0 14.677333 0.469333 14.677333 0.469333 0 0.469333-0.426667 1.408-0.938667 2.816-0.426667 0.938667-1.408 4.693333-2.346666 8.448l-1.92 6.101334h-29.354667l-3.328 11.221333c-4.693333 15.957333-4.266667 16.426667 13.738667 14.08 7.594667-0.938667 7.125333-1.877333 3.797333 9.386667l-2.858667 9.386666h-19.882666c-31.274667 0-31.744-0.981333-23.210667-27.690666 2.389333-8.448 4.736-15.445333 4.736-15.445334s-3.328-0.469333-8.064-0.469333c-4.266667 0-8.021333 0-8.021333-0.469333 3.285333-11.733333 4.693333-15.488 4.693333-16.426667 0.512-0.938667 1.450667-1.408 8.533333-1.408h8.106667l3.754667-14.506667h-7.594667c-5.674667 0-7.552 0-7.552-0.938666s4.266667-14.506667 4.693333-15.957334c0.981333-0.938667 72.533333-0.426667 72.021334 0.469334z m91.904 33.749333c0 0.938667-0.938667 3.754667-1.408 6.101333-2.858667 13.141333-6.613333 15.914667-21.76 16.853334l-9.984 0.938666c-0.938667 1.408-0.938667 12.672 0 14.549334l1.408 1.877333 9.472-0.469333c5.248-0.469333 9.514667-0.469333 9.514666-0.469334 0 0.938667-5.248 17.322667-5.717333 17.792-0.938667 0.938667-29.866667 0.469333-33.621333-0.938666-5.674667-1.877333-5.674667-1.408-5.205334-30.933334l0.469334-25.770666h24.149333v9.813333h4.736c5.205333 0 5.674667-0.426667 8.064-6.997333l1.408-3.754667h9.472c8.533333 0.469333 9.472 0.469333 9.002667 1.408z m44.544-200.618667l-5.205334 22.485334h7.082667c36.48 0.938667 51.626667-40.789333 16.128-43.562667l-11.392-0.938667c-1.408 0-1.408 1.408-6.613333 22.016z m-188.544 31.872c-8.96 3.754667-17.493333 37.504-10.410667 42.666667 5.205333 4.224 12.8-2.816 16.554667-14.506667 6.186667-21.589333 4.266667-31.914667-6.144-28.16z m282.325333 2.346667c-9.472 4.693333-16.554667 37.973333-9.472 41.728 9.472 5.12 21.802667-12.672 21.802667-31.872 0-8.96-5.205333-13.141333-12.330667-9.856z m-191.36 111.573333l-2.389333 8.405334c-1.408 4.266667-2.346667 7.978667-2.816 8.448 0 0.469333 2.346667-0.426667 5.674666-2.346667 9.472-4.693333 12.330667-5.632 26.026667-6.101333l11.861333-0.426667c1.92-5.632 2.389333-7.978667 2.389334-8.448 0.426667-0.469333-40.277333-0.469333-40.746667 0.426667z m-8.064 27.178667l-1.877333 7.509333 40.704-0.469333 2.389333-7.509333c-32.213333 0-41.216 0-41.216 0.426666z m128.853333-16.896c-1.877333 6.101333-3.328 10.794667-2.858666 10.794667l5.717333-1.877334c2.816-0.938667 8.021333-2.346667 10.88-2.816 2.858667-0.426667 5.205333-0.938667 5.674667-0.938666 0 0 4.736-14.506667 4.736-14.976 0 0-4.693333-0.469333-10.410667-0.469334h-10.410667l-3.328 10.282667z m-7.594666 23.893333c0 0.512-1.877333 5.205333-3.285334 10.794667-1.92 5.632-3.328 10.794667-3.328 10.794667 0 0.469333 2.346667-0.426667 5.674667-1.877334 3.328-1.408 8.064-2.816 10.922667-3.285333 6.144-0.938667 6.613333-1.408 7.082666-3.754667 0.469333-0.938667 1.408-4.693333 2.389334-7.466666l1.877333-5.632h-10.410667c-5.674667 0-10.922667 0-10.922666 0.426666z m-16.554667 53.930667l20.821333 0.469333c4.266667-14.08 5.717333-18.773333 5.717334-19.2l-20.864-0.938666-5.674667 19.669333z"
    fill="#FFFFFF" p-id="1469"></path>
</svg>
