<?xml version="1.0" standalone="no"?><!DOCTYPE svg PUBLIC "-//W3C//DTD SVG 1.1//EN"
  "http://www.w3.org/Graphics/SVG/1.1/DTD/svg11.dtd">
<svg t="1644769840803" class="icon" viewBox="0 0 1024 1024" version="1.1" xmlns="http://www.w3.org/2000/svg" p-id="1318"
     width="20" height="20">
  <defs>
    <style type="text/css"></style>
  </defs>
  <path
    d="M254.208 765.269333H200.661333c-3.669333 0-7.381333 1.877333-7.381333 7.424l-22.144 138.88c0 1.877333 1.834667 3.712 3.712 3.712h25.813333c3.712 0 7.381333-1.877333 7.381334-7.424l7.381333-38.869333c0-3.712 3.712-7.424 7.381333-7.424h18.474667c35.072 0 57.216-18.517333 62.72-51.84 1.877333-14.805333 0-25.941333-7.338667-35.2-9.216-5.546667-22.186667-9.258667-42.453333-9.258667z m5.546667 50.005334c-1.877333 20.394667-18.474667 20.394667-33.237334 20.394666h-9.216l7.381334-35.2c0-1.834667 1.834667-5.546667 3.669333-5.546666h3.712c9.216 0 20.309333 0 23.978667 7.381333 3.712 1.877333 5.546667 7.424 3.712 12.970667z m158.72 0h-25.856c-1.834667 0-3.669333 1.877333-3.669334 3.712l-1.877333 7.424-1.834667-1.877334c-7.381333-9.258667-18.432-11.093333-31.36-11.093333-29.525333 0-53.546667 22.186667-57.216 53.674667-1.834667 14.848 0 29.653333 9.216 40.746666 9.216 9.258667 20.309333 12.970667 33.237334 12.970667 12.928 0 25.813333-3.712 35.072-14.805333l-1.877334 7.424c0 1.834667 1.877333 3.669333 3.712 3.669333h23.978667c3.712 0 7.381333-1.834667 7.381333-7.381333l12.928-88.917334c1.834667-3.669333 0-5.546667-1.834666-5.546666z m-38.784 51.84c-1.834667 14.848-14.762667 24.106667-29.525334 24.106666a23.68 23.68 0 0 1-18.432-7.424c-3.712-3.712-3.712-11.093333-3.712-18.517333 1.834667-14.805333 14.762667-24.064 29.525334-24.064 7.381333 0 12.928 1.834667 18.474666 7.381333 3.669333 5.546667 7.381333 11.093333 3.669334 18.517334z m179.072-51.84h-25.856c-1.834667 0-3.712 1.877333-7.381334 1.877333l-35.072 53.674667-14.762666-51.84c0-1.834667-3.712-3.712-7.381334-3.712h-25.856c-1.834667 0-3.669333 1.877333-3.669333 3.712v1.834666l29.525333 85.205334-25.856 38.869333c-1.834667 1.877333 0 3.712 0 7.424h29.525334c1.877333 0 3.712-1.834667 7.381333-1.834667l86.784-127.786666c-3.712-1.877333-5.546667-5.546667-7.381333-7.424z"
    fill="#253B80" p-id="1319"></path>
  <path
    d="M645.504 765.269333H590.08c-3.712 0-7.381333 1.877333-7.381333 7.424l-22.186667 140.757334c0 1.834667 1.877333 3.669333 3.712 3.669333h29.525333c1.877333 0 3.712-1.834667 3.712-3.712l7.381334-40.704c0-3.712 3.669333-7.424 7.381333-7.424h18.474667c35.072 0 57.173333-18.517333 62.72-51.84 1.877333-14.805333 0-25.941333-7.381334-35.2-9.216-9.258667-22.144-12.970667-40.576-12.970667z m7.381333 50.005334c-1.877333 20.394667-18.474667 20.394667-33.237333 20.394666h-9.216l7.381333-35.2c0-1.834667 1.834667-3.712 3.669334-3.712h3.712c9.216 0 20.309333 0 23.978666 7.424 3.712 0 3.712 5.546667 3.712 11.093334z m155.008 0h-25.813333c-1.834667 0-3.712 1.877333-3.712 3.712l-1.834667 7.424-1.834666-1.877334c-7.381333-9.258667-18.474667-11.093333-31.402667-11.093333-29.525333 0-53.504 22.186667-57.173333 53.674667-1.877333 14.848 0 29.653333 9.216 40.746666 9.216 9.258667 20.309333 12.970667 33.194666 12.970667 12.928 0 25.856-3.712 35.072-14.805333l-1.834666 7.424c0 1.834667 1.834667 3.669333 3.712 3.669333h23.978666c3.669333 0 7.381333-1.834667 7.381334-7.381333l12.928-88.917334c3.669333-3.669333 3.669333-5.546667-1.877334-5.546666z m-35.029333 51.84c-1.877333 14.848-14.762667 24.106667-29.568 24.106666a23.637333 23.637333 0 0 1-18.432-7.424c-3.712-3.712-3.712-11.093333-3.712-18.517333 1.877333-14.805333 14.762667-24.064 29.525333-24.064 7.424 0 12.928 1.834667 18.474667 7.381333 3.712 5.546667 3.712 11.093333 3.712 18.517334z m66.432-98.133334l-22.186667 142.592c0 1.877333 1.877333 3.712 3.712 3.712h22.186667c3.669333 0 7.338667-1.877333 7.338667-7.424l22.186666-140.714666c0-1.877333-1.877333-3.712-3.712-3.712h-23.978666c-3.712 1.834667-5.546667 3.712-5.546667 5.546666z"
    fill="#179BD7" p-id="1320"></path>
  <path
    d="M438.784 691.2l11.093333-68.522667H311.381333L388.949333 119.04c0-1.834667 0-1.834667 1.834667-5.546667 0 0 1.834667-1.877333 5.546667-1.877333h191.957333c64.597333 0 107.050667 14.848 131.029333 40.746667 9.216 11.093333 16.64 24.106667 22.186667 38.912 1.792 18.517333 1.792 35.157333 0 55.552v16.64l11.050667 5.546666c7.381333 5.546667 16.597333 9.301333 22.144 16.682667 9.216 11.093333 16.64 24.064 18.432 40.746667 1.877333 18.517333 1.877333 38.869333-1.834667 57.429333-5.546667 24.064-11.093333 44.416-23.978667 64.810667-9.216 16.64-22.186667 31.445333-38.784 40.704a247.552 247.552 0 0 1-49.834666 24.106666c-22.144 5.546667-40.576 7.381333-60.885334 7.381334h-22.186666c-22.101333 0-40.576 16.64-44.288 38.912v7.381333l-18.432 118.528v5.546667s0 1.877333-1.834667 1.877333h-1.877333c0-3.712-90.453333-1.877333-90.453334-1.877333z"
    fill="#253B80" p-id="1321"></path>
  <path
    d="M778.368 248.618667c0 5.546667-1.834667 7.424-1.834667 12.970666-27.690667 138.88-116.266667 183.338667-230.698666 183.338667h-59.093334c-14.762667 0-23.978667 9.258667-27.648 24.064l-29.568 192.597333-7.381333 55.552c-1.834667 7.381333 5.546667 14.805333 12.928 16.64h107.093333c12.885333 0 22.101333-9.258667 23.978667-22.186666v-5.546667l20.266667-125.952 1.877333-7.381333c1.834667-12.970667 12.928-22.229333 23.978667-22.229334h14.762666c101.546667 0 177.194667-42.624 203.050667-161.109333 9.216-50.005333 5.546667-92.586667-20.309333-120.362667-11.093333-7.424-18.474667-14.848-31.402667-20.394666z"
    fill="#179BD7" p-id="1322"></path>
  <path
    d="M750.677333 237.525333c-5.546667 0-7.381333-1.877333-12.885333-1.877333-5.546667 0-9.258667-1.834667-12.928-1.834667-16.64-1.834667-35.072-5.546667-51.669333-5.546666h-155.050667c-12.928 0-22.186667 9.258667-24.021333 22.186666l-31.36 212.992v5.546667a27.733333 27.733333 0 0 1 27.690666-24.064h59.050667c114.432 0 204.885333-46.293333 230.741333-183.338667 0-5.546667 1.834667-7.424 1.834667-12.970666-7.381333-1.834667-14.762667-7.381333-22.186667-9.258667l-9.216-1.834667c0 1.834667 0 0 0 0z"
    fill="#222D65" p-id="1323"></path>
  <path
    d="M494.122667 252.330667c1.877333-12.970667 12.928-22.186667 24.021333-22.186667h155.050667c16.597333 0 35.029333 0 51.626666 5.546667 5.546667 0 9.258667 1.834667 12.970667 1.834666 5.546667 0 7.381333 1.834667 12.885333 1.834667l5.546667 1.877333c7.381333 1.834667 14.762667 5.546667 22.186667 9.258667 7.338667-50.005333 0-85.205333-27.733334-114.816-29.525333-35.2-84.906667-50.005333-153.173333-50.005333H398.165333c-14.762667 0-23.978667 9.258667-27.690666 24.064L289.28 639.36c-1.834667 9.258667 5.546667 16.64 14.762667 20.352h125.482666l31.402667-196.266667c1.834667 0 33.194667-211.114667 33.194667-211.114666z"
    fill="#253B80" p-id="1324"></path>
</svg>
