<?xml version="1.0" standalone="no"?><!DOCTYPE svg PUBLIC "-//W3C//DTD SVG 1.1//EN" "http://www.w3.org/Graphics/SVG/1.1/DTD/svg11.dtd"><svg class="icon" width="20px" height="20.00px" viewBox="0 0 1024 1024" version="1.1" xmlns="http://www.w3.org/2000/svg"><path d="M829.3 98.7H196.8c-72.4 0-131.4 58.9-131.4 131.4v535.2c0 72.4 58.9 131.4 131.4 131.4h632.5c72.4 0 131.4-58.9 131.4-131.4V230c-0.1-72.4-59-131.3-131.4-131.3z m-632.5 64h632.5c37.1 0 67.4 30.2 67.4 67.4v90.7H129.4V230c0-37.1 30.2-67.3 67.4-67.3z m632.5 669.9H196.8c-37.1 0-67.4-30.2-67.4-67.4V384.7h767.2v380.5c0 37.2-30.2 67.4-67.3 67.4zM225.1 767.5c-8.2 0-16.4-3.1-22.6-9.4-12.5-12.5-12.5-32.8 0-45.3l49.7-49.7c12.5-12.5 32.8-12.5 45.3 0s12.5 32.8 0 45.3l-49.7 49.7c-6.3 6.3-14.5 9.4-22.7 9.4zM353.7 767.5c-8.2 0-16.4-3.1-22.6-9.4-12.5-12.5-12.5-32.8 0-45.3l49.7-49.7c12.5-12.5 32.8-12.5 45.3 0s12.5 32.8 0 45.3l-49.7 49.7c-6.4 6.3-14.6 9.4-22.7 9.4z" /></svg>